<?xml version="1.0" standalone="no"?>
<!DOCTYPE svg PUBLIC "-//W3C//DTD SVG 20010904//EN"
 "http://www.w3.org/TR/2001/REC-SVG-20010904/DTD/svg10.dtd">
<svg version="1.0" xmlns="http://www.w3.org/2000/svg"
 width="475.000000pt" height="475.000000pt" viewBox="0 0 475.000000 475.000000"
 preserveAspectRatio="xMidYMid meet">
<metadata>
Created by potrace 1.14, written by Peter Selinger 2001-2017
</metadata>
<g transform="translate(0.000000,475.000000) scale(0.100000,-0.100000)"
fill="#000000" stroke="none">
<path d="M78 3672 c-25 -3 -20 -13 206 -400 128 -218 239 -408 247 -422 8 -14
19 -32 25 -40 6 -8 25 -40 41 -70 28 -51 354 -609 394 -675 11 -16 22 -37 26
-45 3 -8 14 -26 23 -40 10 -14 28 -45 42 -70 14 -25 72 -124 128 -220 56 -96
110 -188 120 -205 31 -54 286 -490 301 -513 7 -12 17 -22 20 -22 3 0 52 80
108 178 56 97 106 184 111 192 5 8 58 101 118 205 136 236 168 292 464 805
132 228 250 433 263 455 12 22 59 103 104 180 44 77 81 143 81 147 0 4 -78 7
-174 7 l-173 -1 -89 -155 c-161 -281 -231 -403 -244 -423 -6 -8 -13 -22 -17
-30 -4 -8 -16 -31 -28 -50 -12 -19 -33 -55 -47 -80 -14 -25 -57 -99 -95 -165
-65 -110 -238 -412 -285 -495 -49 -86 -101 -170 -103 -168 -2 2 -12 20 -24 41
-26 46 -42 74 -123 212 -212 361 -383 654 -398 680 -9 17 -39 66 -65 110 -54
91 -77 131 -113 195 -13 25 -28 50 -32 55 -7 9 -231 391 -271 462 -10 17 -29
50 -43 72 -15 22 -26 42 -26 44 0 5 -139 239 -146 246 -4 5 -288 7 -326 3z"/>
<path d="M941 3648 c14 -26 160 -271 166 -277 1 -2 618 -5 1371 -6 1272 -1
1371 -3 1427 -19 199 -58 331 -230 340 -441 2 -50 -24 -154 -51 -209 -58 -114
-158 -198 -284 -237 -60 -18 -98 -20 -508 -22 l-443 -2 -28 -50 c-36 -65 -60
-106 -105 -182 -20 -34 -36 -63 -36 -65 0 -2 201 -3 448 -3 476 1 517 -2 631
-49 193 -78 338 -265 369 -476 39 -265 -112 -535 -361 -644 -111 -49 -122 -50
-790 -50 -346 -1 -631 2 -634 6 -3 6 50 107 117 218 26 44 385 674 388 680 2
5 -76 8 -171 8 l-175 -1 -75 -131 c-41 -72 -84 -147 -95 -166 -11 -19 -69
-120 -129 -225 -60 -104 -124 -215 -140 -245 -17 -30 -81 -142 -142 -249 -61
-106 -111 -195 -111 -197 0 -3 420 -3 933 -2 923 3 933 4 1009 25 356 101 588
350 674 725 10 43 13 243 4 293 -15 88 -18 99 -40 164 -46 139 -112 244 -221
354 l-80 81 28 20 c209 150 333 407 320 661 -18 336 -219 594 -552 706 l-70
24 -1498 3 -1498 2 12 -22z"/>
</g>
</svg>
